# xmcd CD database file
#
# Track frame offsets:
#	150
#	25692
#	67795
#	98946
#	140757
#	169731
#	202221
#	236289
#
# Disc length: 3748 seconds
#
# Revision: 0
# Processed by: cddbd v1.5.2PL0 Copyright (c) Steve Scherf et al.
# Submitted via: CDex 1.79
#
DISCID=680ea208
DTITLE=Maciej Obara Quartet - Three Crowns
DYEAR=2019
DGENRE=Jazz
TTITLE0=Three Pieces in old Style
TTITLE1=Blue Skies For Andy
TTITLE2=Smoggy People
TTITLE3=Little requiemfor a Polish Girl
TTITLE4=Vang Church
TTITLE5=Three Crowns
TTITLE6=Glow
TTITLE7=Mr. S
EXTD=YEAR: 2019
EXTT0=
EXTT1=
EXTT2=
EXTT3=
EXTT4=
EXTT5=
EXTT6=
EXTT7=
PLAYORDER=
